<svg width="1800" height="1100" viewBox="0 0 1800 1100" fill="none" xmlns="http://www.w3.org/2000/svg">
  <defs>
    <linearGradient id="bgGrad" x1="120" y1="0" x2="1710" y2="1100" gradientUnits="userSpaceOnUse">
      <stop offset="0" stop-color="#F7E8E9"/>
      <stop offset="0.48" stop-color="#F4E7DE"/>
      <stop offset="1" stop-color="#EEE1DA"/>
    </linearGradient>
    <linearGradient id="panelSand" x1="145" y1="86" x2="640" y2="462" gradientUnits="userSpaceOnUse">
      <stop offset="0" stop-color="#E6D1C1"/>
      <stop offset="1" stop-color="#DCC1AB"/>
    </linearGradient>
    <linearGradient id="panelStone" x1="1004" y1="72" x2="1740" y2="442" gradientUnits="userSpaceOnUse">
      <stop offset="0" stop-color="#D4D2CF"/>
      <stop offset="1" stop-color="#C5C1BD"/>
    </linearGradient>
    <linearGradient id="panelBlush" x1="674" y1="316" x2="1200" y2="866" gradientUnits="userSpaceOnUse">
      <stop offset="0" stop-color="#F1DADF"/>
      <stop offset="1" stop-color="#EED3D7"/>
    </linearGradient>
    <linearGradient id="panelWarm" x1="0" y1="556" x2="548" y2="1035" gradientUnits="userSpaceOnUse">
      <stop offset="0" stop-color="#E8E2DD"/>
      <stop offset="1" stop-color="#D9CCBF"/>
    </linearGradient>
    <linearGradient id="archFill" x1="1408" y1="70" x2="1748" y2="714" gradientUnits="userSpaceOnUse">
      <stop offset="0" stop-color="#F8F3EE"/>
      <stop offset="1" stop-color="#EEE2D4"/>
    </linearGradient>
    <pattern id="terrazzo" width="120" height="120" patternUnits="userSpaceOnUse">
      <rect width="120" height="120" fill="#EFDCCB"/>
      <circle cx="22" cy="30" r="7" fill="#D4B59D"/>
      <circle cx="86" cy="25" r="9" fill="#C99E85"/>
      <circle cx="54" cy="67" r="8" fill="#E8CBB8"/>
      <circle cx="95" cy="90" r="6" fill="#A9B49E"/>
      <circle cx="21" cy="98" r="5" fill="#D8AFA0"/>
      <rect x="62" y="12" width="7" height="7" rx="2" fill="#B8A18D"/>
      <rect x="10" y="64" width="9" height="9" rx="2" fill="#CAB9AA"/>
      <rect x="74" y="52" width="10" height="10" rx="3" fill="#EAD8CB"/>
    </pattern>
    <filter id="grain" x="-20%" y="-20%" width="140%" height="140%">
      <feTurbulence type="fractalNoise" baseFrequency="0.9" numOctaves="2" stitchTiles="stitch" result="noise"/>
      <feColorMatrix in="noise" type="matrix" values="0 0 0 0 0.08 0 0 0 0 0.05 0 0 0 0 0.05 0 0 0 0.11 0"/>
    </filter>
    <filter id="softShadow" x="-20%" y="-20%" width="140%" height="140%">
      <feDropShadow dx="0" dy="12" stdDeviation="14" flood-color="#7F5A5E" flood-opacity="0.18"/>
    </filter>
    <clipPath id="archClip">
      <path d="M1408 664V230C1408 128.38 1490.38 46 1592 46C1693.62 46 1776 128.38 1776 230V664H1408Z"/>
    </clipPath>
  </defs>

  <rect width="1800" height="1100" fill="url(#bgGrad)"/>
  <circle cx="222" cy="150" r="170" fill="#F2DDE0" opacity="0.45"/>
  <circle cx="1660" cy="1040" r="210" fill="#E9DBD6" opacity="0.55"/>
  <circle cx="1472" cy="212" r="132" fill="#EFE3D4" opacity="0.5"/>

  <g filter="url(#softShadow)">
    <rect x="48" y="70" width="552" height="362" rx="26" fill="url(#panelSand)"/>
    <rect x="86" y="108" width="156" height="290" rx="14" fill="#EFD7C9"/>
    <rect x="268" y="116" width="286" height="162" rx="12" fill="#E3B8A7"/>
    <rect x="268" y="294" width="286" height="106" rx="12" fill="#EAD6CB"/>
    <rect x="618" y="28" width="336" height="232" rx="22" fill="url(#terrazzo)"/>
    <rect x="970" y="72" width="782" height="420" rx="24" fill="url(#panelStone)"/>
    <rect x="660" y="314" width="560" height="560" rx="6" fill="url(#panelBlush)"/>
    <rect x="-24" y="546" width="596" height="512" rx="24" fill="url(#panelWarm)"/>
    <rect x="1274" y="722" width="552" height="350" rx="18" fill="#D5CEC6"/>
  </g>

  <g clip-path="url(#archClip)">
    <rect x="1408" y="46" width="368" height="618" fill="url(#archFill)"/>
    <rect x="1416" y="584" width="358" height="76" fill="#D8C3AC"/>
    <rect x="1466" y="362" width="22" height="238" rx="11" fill="#83916D"/>
    <rect x="1504" y="322" width="34" height="278" rx="17" fill="#6F7E5B"/>
    <rect x="1552" y="338" width="26" height="262" rx="13" fill="#7D8A64"/>
    <rect x="1600" y="302" width="38" height="298" rx="19" fill="#62744F"/>
    <rect x="1652" y="350" width="24" height="250" rx="12" fill="#7F8D69"/>
    <rect x="1690" y="370" width="18" height="230" rx="9" fill="#95A07D"/>
  </g>

  <g opacity="0.9">
    <rect x="742" y="438" width="8" height="316" rx="4" fill="#F6E4E7"/>
    <rect x="774" y="438" width="8" height="316" rx="4" fill="#F6E4E7"/>
    <rect x="808" y="438" width="8" height="316" rx="4" fill="#F6E4E7"/>
  </g>

  <text x="744" y="548" fill="#18161A" font-family="Nunito Sans, Arial, sans-serif" font-size="104" font-weight="700" letter-spacing="-2">
    Skin
  </text>
  <text x="744" y="640" fill="#18161A" font-family="Nunito Sans, Arial, sans-serif" font-size="104" font-weight="700" letter-spacing="-2">
    Refinery.
  </text>
  <text x="748" y="708" fill="#302B2B" font-family="Nunito Sans, Arial, sans-serif" font-size="40" font-weight="600" letter-spacing="1">
    MEDICAL
  </text>
  <text x="748" y="756" fill="#302B2B" font-family="Nunito Sans, Arial, sans-serif" font-size="40" font-weight="600" letter-spacing="1">
    AESTHETICS
  </text>

  <g opacity="0.65">
    <rect x="96" y="610" width="210" height="164" rx="18" fill="#E5D7C6"/>
    <rect x="134" y="644" width="132" height="92" rx="14" fill="#F3DDE0"/>
    <circle cx="420" cy="676" r="34" fill="#D89D71"/>
    <rect x="346" y="744" width="176" height="134" rx="12" fill="#D5C3B1"/>
    <rect x="516" y="882" width="120" height="82" rx="10" fill="#E9D9CD"/>
  </g>

  <g opacity="0.46">
    <rect x="1298" y="754" width="486" height="300" rx="18" fill="#F8F6F3"/>
    <rect x="1334" y="804" width="416" height="16" rx="8" fill="#D9C3AF"/>
    <rect x="1334" y="864" width="416" height="16" rx="8" fill="#D9C3AF"/>
    <rect x="1334" y="924" width="416" height="16" rx="8" fill="#D9C3AF"/>
  </g>

  <rect width="1800" height="1100" fill="url(#bgGrad)" opacity="0.08"/>
  <rect width="1800" height="1100" filter="url(#grain)"/>
</svg>
